<svg xmlns="http://www.w3.org/2000/svg" version="1.0" viewBox="0 0 836 836"><g fill="#a8cce2"><path d="M192 51c-14 6-41 22-48 27l-4 3c-10 8-29 25-38 36l-4 5a170 170 0 0 0-10 14l-1 1-3 5-13 26-3 9-3 9-2 7a211 211 0 0 0-2 92l1 9a359 359 0 0 0 19 59l5 11a711 711 0 0 0 72 122 382 382 0 0 1-98-133 262 262 0 0 1-21-79l-4 9-3 11-2 8-2 12c-2 9-2 52 0 62a248 248 0 0 0 43 105l6 8 5 7 5 6c11 14 32 34 46 46l6 5a98 98 0 0 0 10 8c2 2 18 14 24 17 15 9-26-8-43-18l-7-4c-2 0-34-23-41-30a209 209 0 0 1-64-90l1 45a229 229 0 0 0 26 74 185 185 0 0 0 57 62 246 246 0 0 0 106 39h-11a322 322 0 0 1-143-41c-6-4-6-4-5-1l1 2 2 3 2 3 2 3 30 31c20 15 42 26 68 33a216 216 0 0 0 100-1h4l-3 1a223 223 0 0 1-77 17 398 398 0 0 1-83-8l3 4 5 3 34 18 12 5c15 6 35 12 51 15l11 2c9 2 36 2 49 1 22-2 44-8 62-17l11-5-1 2-5 4c-2 2-5 3-5 2l-1 1a222 222 0 0 1-42 23 278 278 0 0 1-94 17l27 8a315 315 0 0 0 90 6l13-2a240 240 0 0 0 46-13c15-6 44-23 53-32 4-3 4-4 4-6a848 848 0 0 1-2-53c4-55 18-91 47-120 19-19 38-30 60-34 8-2 22-1 32 2 6 1 21 8 22 10l6 3v-5c0-15-13-33-32-43l-8-4-3-8a73 73 0 0 0-76-48c-28 2-51-6-62-22l-6-9c-2-5-3-5-3-3-1 3 0 13 2 21 4 10 7 17 14 25l4 4c-2 0-13-9-17-13l-6-8c-2-5-3-5-3-3-1 3 0 16 2 22a103 103 0 0 0 11 23l-9 5c-11 5-30 16-30 18l2 5a139 139 0 0 1 10 50c0 13-1 15-3 3-5-35-20-62-50-87l-7-6a589 589 0 0 0-55-40 639 639 0 0 1-76-82c-21-32-37-69-43-100-4-21-4-22-4-46a146 146 0 0 1 7-56c3-11 11-30 19-43 7-12 25-31 36-39 4-3 5-5 3-5l-8 3z"/><path d="M636 51c34 29 54 64 62 110 2 11 2 47 0 60-2 14-7 32-11 45a365 365 0 0 1-155 184l5 7 9 16c5 10 5 10 11 14a67 67 0 0 1 34 79l-3-3a57 57 0 0 0-40-25c-30-4-70 19-93 55a204 204 0 0 0-29 129c3 15 11 28 22 37 11 8 34 17 55 23a264 264 0 0 0 145-9l-13-1c-42-2-82-14-114-33l-24-17 12 5c32 16 67 22 104 19a275 275 0 0 0 126-47l-12 1c-47 8-91 7-127-3-11-3-26-9-26-10l10 2a195 195 0 0 0 180-49l6-7 15-20-9 4a285 285 0 0 1-152 39l15-3c74-14 128-53 157-111a236 236 0 0 0 20-107l-4 9c-19 50-63 93-122 123l-32 14 10-8c50-35 87-75 110-117 14-25 24-53 28-81 2-16 2-44 0-59-2-13-7-31-10-38-2-6-2-6-4 9-6 50-32 104-72 154a535 535 0 0 1-43 40 719 719 0 0 0 61-98c21-42 33-79 37-116a188 188 0 0 0-59-165c-20-20-38-33-65-45-18-9-21-11-15-6z"/></g></svg>