<svg xmlns="http://www.w3.org/2000/svg" viewBox="0 0 114 114"><path fill="#FFF" d="M0 0h114v114H0z"/><path d="M24 12h6v6h-6zm12 0h6v6h-6zm24 0h6v6h-6zm12 0h18v6H72zm24 0h6v6h-6zm-78 6h6v6h-6zm36 0h6v6h-6zm24 0h6v6h-6zm-54 6h12v6H24zm42 0h6v6h-6zm18 0h6v6h-6zm12 0h6v6h-6zm-78 6h84v6H18zm0 6h6v12h-6zm12 0h6v12h-6zm48 0h6v6h-6zm18 0h6v12h-6zm-54 6h30v6H42zm36 0h12v6H78zm-54 6h12v6H24zm18 0h6v18h-6zm24 0h6v18h-6zm12 0h6v6h-6zm12 0h12v6H90zm-78 6h12v12H12zm18 0h6v24h-6zm24 0h6v6h-6zm24 0h24v6H78zm0 6h6v18h-6zm12 0h6v6h-6zm-48 6h30v6H42zm54 6h6v6h-6zm-84 6h12v6H12zm18 0h66v6H30zm-18 6h6v6h-6zm24 0h18v6H36zm24 0h18v6H60zm-36 6h6v6h-6zm12 0h12v6H36zm18 0h36v6H54zm42 0h6v6h-6zm-84 6h24v6H12zm42 0h24v6H54zm30 0h18v6H84z"/></svg>